<svg id="Layer_1" data-name="Layer 1" xmlns="http://www.w3.org/2000/svg" width="497.7778" height="500" viewBox="0 0 497.7778 500"><defs><style>.cls-1{fill:#fff;}.cls-2{fill:#fab915;stroke:#231f20;stroke-miterlimit:10;}</style></defs><title>nyc311</title><path d="M496.5839,500H1V0H496.5839ZM468.4186,29.0755H28.6425v442.3H43.3193q205.1051.0014,410.21,0c14.8519,0,14.8863-.0182,14.8872-15.1515q.0118-206.5685.0018-413.1369C468.4185,38.7327,468.4186,34.3779,468.4186,29.0755Z" transform="translate(-1)"/><path class="cls-1" d="M496.5839,500V0c.7374,1.4815,2.12,2.9626,2.1208,4.4445q.1461,245.5554,0,491.111C498.7039,497.0374,497.3214,498.5185,496.5839,500Z" transform="translate(-1)"/><path class="cls-2" d="M468.4186,29.0755c0,5.3024,0,9.6572,0,14.0119q.0018,206.5684-.0018,413.1369c-.0009,15.1333-.0353,15.1511-14.8872,15.1515q-205.1052.0057-410.21,0H28.6425v-442.3ZM103.1914,336.1739c12.9863.85,25.46.3262,37.3282,2.77,16.3614,3.3684,27.2008,18.6684,25.6723,32.9543-1.6785,15.6876-15.51,28.8333-31.8326,30.5223-13.55,1.4021-25.2552-2.7734-36.21-10.5778-2.6153-1.8633-7.9051-3.238-10.062-1.8514-7.3322,4.7136-13.8131,10.763-20.9359,16.56a32.9558,32.9558,0,0,0,2.9775,4.064,82.5741,82.5741,0,0,0,6.6353,5.85c19.6661,15.2727,42.2127,18.0455,65.99,15.0528,28.3317-3.5658,53.078-28.3109,55.4515-55.2527,2.7862-31.6257-10.9764-50.7283-44.5475-60.8641L198.78,258.2428H75.55v28.761h64.43ZM155.22,71.1418v82.1089L67.8927,67.2915V209.13H94.5041V126.867l87.5093,86.5974V71.1418Zm266.1085,97.2329c-23.3168,22.2-50.3857,24.4965-68.8781,6.7929-18.1924-17.4164-20.445-46.01-5.051-64.1169,19.7831-23.2693,42.56-22.8079,74.4014,2.013l20.11-15.8577c-20.7518-26.59-54.144-35.87-85.2329-24.5431-29.8151,10.8624-49.2109,39.021-48.1615,69.92,1.0267,30.2319,21.869,58.0829,49.84,66.6,32.4524,9.8817,65.2153.0124,83.4016-25.924ZM259.9448,306.2086v122.134h31.6159V253.829c-18.0824,10.8378-34.5113,20.5916-50.7919,30.589a7.5677,7.5677,0,0,0-3.2324,5.2421c-.3166,9.7583-.15,19.5323-.15,31.0258ZM402.9854,428.5135V254.1585c-17.5535,10.5942-33.6227,20.1847-49.5338,30.033-1.9676,1.2179-4.3066,3.75-4.4027,5.7727-.46,9.6827-.2063,19.4-.2063,30.9216L371.9652,306.41v122.104ZM319.3424,70.679c-6.7169,0-10.7628.5933-14.5726-.108-12.9634-2.3861-20.075,3.7593-25.7693,14.864-6.4933,12.6631-14.655,24.463-22.927,38.0055-9.8219-16.18-18.5922-31.0429-27.8728-45.5768-1.9185-3.0044-5.5343-6.4126-8.717-6.8094-7.8605-.98-15.9235-.3214-26.5229-.3214,10.6937,16.8313,19.0459,32.4577,29.7483,46.2435,16.2468,20.9274,22.0324,43.5558,20.47,69.9676-1.5219,25.7344-5.7487,22.7074,23.2611,22.5915.6223-.0024,1.2422-.6112,2.6844-1.3681,0-15.436-.5748-31.3084.264-47.105.37-6.9671,2.2422-14.6091,5.7895-20.5166C288.8268,117.8163,303.4286,95.6645,319.3424,70.679Z" transform="translate(-1)"/><path d="M103.1914,336.1739l36.7885-49.17H75.55v-28.761H198.78l-45.1209,57.1581c33.5711,10.1358,47.3337,29.2384,44.5475,60.8641-2.3735,26.9418-27.12,51.6869-55.4515,55.2527-23.7776,2.9927-46.3242.22-65.99-15.0528a82.5741,82.5741,0,0,1-6.6353-5.85,32.9558,32.9558,0,0,1-2.9775-4.064c7.1228-5.7971,13.6037-11.8465,20.9359-16.56,2.1569-1.3866,7.4467-.0119,10.062,1.8514,10.9545,7.8044,22.6595,11.98,36.21,10.5778,16.3223-1.689,30.1541-14.8347,31.8326-30.5223,1.5285-14.2859-9.3109-29.5859-25.6723-32.9543C128.6515,336.5,116.1777,337.0242,103.1914,336.1739Z" transform="translate(-1)"/><path d="M155.22,71.1418h26.7935V213.4644L94.5041,126.867V209.13H67.8927V67.2915L155.22,153.2507Z" transform="translate(-1)"/><path d="M421.3284,168.3747l20.4294,14.8846c-18.1863,25.9364-50.9492,35.8057-83.4016,25.924-27.971-8.5171-48.8133-36.3681-49.84-66.6-1.0494-30.8994,18.3464-59.058,48.1615-69.92,31.0889-11.3265,64.4811-2.0469,85.2329,24.5431l-20.11,15.8577c-31.8409-24.8209-54.6183-25.2823-74.4014-2.013-15.394,18.1066-13.1414,46.7005,5.051,64.1169C370.9427,192.8712,398.0116,190.5747,421.3284,168.3747Z" transform="translate(-1)"/><path d="M259.9448,306.2086l-22.558,14.4773c0-11.4935-.167-21.2675.15-31.0258a7.5677,7.5677,0,0,1,3.2324-5.2421c16.2806-9.9974,32.7095-19.7512,50.7919-30.589V428.3426H259.9448Z" transform="translate(-1)"/><path d="M402.9854,428.5135h-31.02V306.41l-23.1226,14.4763c0-11.522-.2534-21.2389.2063-30.9216.0961-2.0224,2.4351-4.5548,4.4027-5.7727,15.9111-9.8483,31.98-19.4388,49.5338-30.033Z" transform="translate(-1)"/><path d="M319.3424,70.679c-15.9138,24.9855-30.5156,47.1373-44.1639,69.8668-3.5473,5.9075-5.4195,13.5495-5.7895,20.5166-.8388,15.7966-.264,31.669-.264,47.105-1.4422.7569-2.0621,1.3657-2.6844,1.3681-29.01.1159-24.783,3.1429-23.2611-22.5915,1.562-26.4118-4.2236-49.04-20.47-69.9676-10.7024-13.7858-19.0546-29.4122-29.7483-46.2435,10.5994,0,18.6624-.6587,26.5229.3214,3.1827.3968,6.7985,3.805,8.717,6.8094,9.2806,14.5339,18.0509,29.3964,27.8728,45.5768,8.272-13.5425,16.4337-25.3424,22.927-38.0055,5.6943-11.1047,12.8059-17.25,25.7693-14.864C308.58,71.2723,312.6255,70.679,319.3424,70.679Z" transform="translate(-1)"/></svg>