<svg id="Layer_1" data-name="Layer 1" xmlns="http://www.w3.org/2000/svg" width="477.9386" height="188.2497" viewBox="0 0 477.9386 188.2497"><defs><style>.cls-1{fill:#00a49a;}</style></defs><title>nycdot</title><path class="cls-1" d="M179.3888,158.1431c6.7374-27.4,40.5713-59.8971,85.9074-62.4913,53.96-3.0877,91.5288,33.7893,99.0762,62.4913Z" transform="translate(-10.8171 -95.47)"/><path class="cls-1" d="M180.6944,225.5692h182.393c-12.3923,31.8909-48.1883,58.2226-91.5411,58.15C227.68,283.6464,191.7608,255.9281,180.6944,225.5692Z" transform="translate(-10.8171 -95.47)"/><path class="cls-1" d="M11.062,157.9012V99.7327c1.8592-.0821,3.4744-.2171,5.0894-.2151,17.7615.0219,35.5471-.5005,53.278.2543,19.4979.83,38.5508,4.4954,55.2683,15.4533,15.5536,10.1949,25.7476,24.6281,32.1734,42.676Z" transform="translate(-10.8171 -95.47)"/><path class="cls-1" d="M488.7556,158.15H374.7868V98.9976H488.7556Z" transform="translate(-10.8171 -95.47)"/><path class="cls-1" d="M11.191,225.3664H156.1272c-3.87,6.6316-6.7792,12.5994-10.5723,17.9391-13.5627,19.0926-32.4315,29.5385-55.2873,33.7215-15.8926,2.9086-31.8665,2.9056-47.8864,2.8905-10.2669-.01-20.5338-.0019-31.19-.0019Z" transform="translate(-10.8171 -95.47)"/><path class="cls-1" d="M394.4235,279.6479V237.7206c0-12.3714,0-12.3715,12.504-12.3714,19.0563,0,38.1134.09,57.1684-.0743,3.8534-.0332,5.1664.99,5.1032,5.0316-.2357,15.0757-.0942,30.1573-.0942,45.2367,0,1.2808,0,2.5617,0,4.1047Z" transform="translate(-10.8171 -95.47)"/><path class="cls-1" d="M370.5462,188.49v7.3815H172.6372V188.49Z" transform="translate(-10.8171 -95.47)"/><path class="cls-1" d="M173.2974,177.0065c.4918-2.6517.93-5.013,1.44-7.7652h5.5086q91.291,0,182.5821.0009c6.7354,0,7.0507.3724,6.4383,7.7643Z" transform="translate(-10.8171 -95.47)"/><path class="cls-1" d="M174.4655,207.26H369.2307c-.6814,2.6764-1.3154,5.1661-2.0016,7.8614h-5.6809q-89.6345,0-179.269,0C175.46,215.1207,175.46,215.1187,174.4655,207.26Z" transform="translate(-10.8171 -95.47)"/><path class="cls-1" d="M11.0361,195.8671c-.0894-1.4-.2169-2.5351-.219-3.6706-.0021-1.1378.1208-2.276.209-3.7486H162.05v7.4192Z" transform="translate(-10.8171 -95.47)"/><path class="cls-1" d="M161.1967,177.0777H11.2085v-7.8364H16.938q68.72,0,137.44.0007C161.4454,169.2422,161.4454,169.2465,161.1967,177.0777Z" transform="translate(-10.8171 -95.47)"/><path class="cls-1" d="M160.8531,207.4834c-1.3284,7.6374-1.3284,7.6377-9.3393,7.6377H11.0918v-7.6377Z" transform="translate(-10.8171 -95.47)"/><path class="cls-1" d="M468.7911,177.0127H394.6438v-7.4094h74.1473Z" transform="translate(-10.8171 -95.47)"/><path class="cls-1" d="M394.6125,196.1968V188.431h73.8908c1.3928,7.7617,1.3928,7.7647-5.911,7.7652q-31.0512.0026-62.1022.0006Z" transform="translate(-10.8171 -95.47)"/><path class="cls-1" d="M394.7552,207.27H468.43c1.5311,7.4769,1.2456,7.8493-5.8992,7.85q-30.5548.0032-61.11,0C394.0605,215.12,394.0605,215.1188,394.7552,207.27Z" transform="translate(-10.8171 -95.47)"/></svg>