<svg id="Layer_1" data-name="Layer 1" xmlns="http://www.w3.org/2000/svg" width="495.8592" height="236.7257" viewBox="0 0 495.8592 236.7257"><defs><style>.cls-1{fill:#506e9c;}</style></defs><title>nycdob</title><path class="cls-1" d="M104.5037,118.9589c0-10.7752-.0439-21.5506.0127-32.3254.054-10.2964,6.6779-16.8856,16.9351-16.9464,4.5979-.0273,9.1967-.05,13.7941.0042,11.1965.1311,23.3552-2.9151,30.7261,11.0674,10.6112-17.1988,26.3646-9.5675,39.9151-10.9257,5.7109-.5724,12.54-2.0617,16.321,4.4055,2.2823,3.9034,5.106,8.5163,4.87,12.6509-.5347,9.3757,2.0384,16.459,9.4787,22.3073,4.2141,3.3124,7.5677,7.7126,12.8842,13.2695,6.62-7.2918,13.2308-13.3323,18.1512-20.522,2.4157-3.53,2.1727-9.1775,2.3051-13.89.3489-12.4143,6-18.3482,18.1857-18.3694q11.6389-.02,23.2779-.0022c14.3146.0039,19.4588,5.1008,19.4836,19.3053.0054,3.0667.0008,6.1333.0008,12.1395,9.78-9.7224,18.0357-17.4027,25.6266-25.6882,4.0758-4.4488,8.3739-5.93,14.2862-5.8766,29.31.2636,58.6272-.0644,87.9346.3359,4.0024.0546,8.3676,2.44,11.8361,4.8072,3.7268,2.5433,6.2269,6.8437,9.9025,9.4957,13.336,9.6225,17.9919,22.186,16.1028,38.4447-1.32,11.3561-6.386,17.4619-18.1457,17.4758-14.03.0167-28.0607.004-42.4682.004-.4839-3.4143-.8735-6.164-1.354-9.5547H393.6624V172.35h40.7189c.5032-3.04.9569-5.78,1.6118-9.7367,16.42,0,33.0213-.8938,49.3935.6382,4.0154.3758,7.2889,8.6749,10.8787,13.35.1389.1809-.04.574.0277.8438,6.7386,26.8623-14.0612,39.0684-29.2661,54.117-1.462,1.447-4.8013,1.3816-7.2709,1.3887-30.4622.0867-60.9263.2-91.3848-.14-3.4949-.039-7.324-2.2521-10.3794-4.3516-21.852-15.0156-30.29-35.5528-26.0032-61.7978,1.2984-7.95.201-16.2894.201-24.45L329.4985,140.9c-11.2914,11.7045-21.7456,24.3926-34.104,34.8434-12.9683,10.9665-18.8184,23.24-16.6209,40.0973.5156,3.9556-2.1494,9.24-5.0115,12.4345-2.4113,2.6915-7.1561,4.2374-11.0028,4.53-8.5715.6522-17.2273.2108-25.8487.2021-12.6567-.0127-20.0313-6.252-18.6234-18.5037,1.9266-16.7643-4.0118-28.5119-16.735-39.2065C189.39,165.0737,179.1311,152.6,168.0357,141.1148l-2.0935,1.2043c-.1939,2.3771-.5518,4.7539-.5564,7.1313-.0429,22.3432-.0058,44.6865-.0346,67.03-.0129,10.0116-6.5141,15.2516-16.1107,16.7561-25.44,3.9886-44.695-4.4765-60.009-24.911-7.1016-9.476-16.4987-17.2429-24.8551-25.7846l-2.464.99c0,10.96.0236,21.9208-.0067,32.881-.0291,10.5133-6.2086,16.5609-16.9309,16.5924q-12.9321.0381-25.8643.002c-11.63-.0211-17.3575-5.5877-17.361-16.9364q-.02-64.8813.0017-129.7627c.0041-10.82,6.0451-15.307,16.756-16.88C42.92,65.84,61.4935,73.559,76.3263,93.2431c7.3268,9.7231,17.0982,17.616,25.7634,26.3369Z" transform="translate(-1.7391 -68.5758)"/><path class="cls-1" d="M2.1124,292.8084V257.6466a1.9923,1.9923,0,0,1,1.9758-1.9888c7.0455-.09,14.0577-.5816,20.93.1817,9.0938,1.01,11.3419,7.7054,7.6565,13.7512-.2538.4164-2.3756,3.9066-2.2987,4.3881,1.1623,7.2792,5.91,11.1115,4.8582,15.0749-2.1511,8.1033-9.8827,6.18-15.2038,6.5-5.0213.3017-10.1768-.6119-15.967-.7367A2.0037,2.0037,0,0,1,2.1124,292.8084ZM11.5888,278.37l-.0108.0268a20.8318,20.8318,0,0,0-.0288,3.8689c.7666,3.2739-1.704,6.0992,4.9886,5.4594,2.3476-.2244,4.5567.2518,6.7885-1.3436,1.2431-.8887.2931-4.101-.2814-5.5169-.5358-1.32-.6851-1.5569-3.338-2.832C18.4915,277.4484,12.0823,277.1149,11.5888,278.37Zm3.44-6.5373c.93-.0568,4.4808.5243,6.5945-.6255,1.3129-.7142,1.2463-5.3876.01-6.2277a11.96,11.96,0,0,0-5.1229-2.4073c-5.7072-.5939-6.0725,2.9-4.3516,8.1366C12.5513,271.9019,13.7752,271.9092,15.0289,271.8326Z" transform="translate(-1.7391 -68.5758)"/><path class="cls-1" d="M220.4665,267.93c0,8.6576.2721,17.5008-.0934,26.3178-.2536,6.1165-3.77,10.2613-10.1117,10.72-6.5883.4769-13.8009,1.5771-17.1879-6.49,5.3684-5.8466,18.05,10.4284,19.1757-4.6964-6.7057-1.4812-14.246-.9762-17.1979-4.4008-3.0369-3.5231-2.9612-11.2346-1.6-16.4232.8-3.0493,6.5518-6.1524,10.4443-6.7189C209.0374,265.49,214.54,267.2036,220.4665,267.93Zm-9.4179,15.2842a5.1581,5.1581,0,0,0-.239-7.5546c-2.0658-1.8015-3.6915-3.1425-4.8063-2.8053-2.556.7732-5.8093,4.8588-5.6658,7.3517.1495,2.5961,3.9812,4.9815,6.2028,7.459Z" transform="translate(-1.7391 -68.5758)"/><path class="cls-1" d="M135.4814,291.2923a2.8393,2.8393,0,0,1-2.3868,2.804c-4.97.8029-9.8871,2.0288-14.5294,1.3605-3.8218-.55-9.5786-4.0649-10.1731-7.0945a32.5038,32.5038,0,0,1,1.88-18.375c1.04-2.3783,8.2079-2.2285,12.6416-2.9107a2.6326,2.6326,0,0,1,1.063.0831,2.8206,2.8206,0,0,0,3.467-2.6349l.2871-5.89a2.8514,2.8514,0,0,1,2.5491-2.6976l2.0632-.2136a2.845,2.845,0,0,1,3.1379,2.83Zm-21.2663-9.04,4.674,5.0992a2.8418,2.8418,0,0,0,4.111.0833c2.0123-2.024,4.1437-4.0438,4.2181-6.1362.0773-2.1762-1.9625-4.4271-3.8315-6.6721a2.85,2.85,0,0,0-3.9711-.4205l-4.88,3.8927A2.853,2.853,0,0,0,114.2151,282.2527Z" transform="translate(-1.7391 -68.5758)"/><path class="cls-1" d="M69.846,290.8514a2.8831,2.8831,0,0,1-2.4639,2.856c-5.8095.8657-10.6162,1.7592-15.4579,2.0295-5.93.3311-10.0451-2.5107-10.3519-8.8291-.2595-5.345-.122-10.7092-.0779-16.429a2.882,2.882,0,0,1,2.8811-2.858h2.4831a2.8845,2.8845,0,0,1,2.8827,2.98c-.1346,3.838-.3946,7.49.2988,10.9515.3427,1.7108,1.714,3.2168,3.13,4.7141a2.8869,2.8869,0,0,0,4.1848.0114c1.4774-1.5444,2.9209-3.0959,3.2947-4.8711.7534-3.5782.4241-7.3829.2907-10.9707a2.8678,2.8678,0,0,1,2.0768-2.8768c4.8886-1.3553,7.0359.326,6.88,5.8C69.728,279.2946,69.8193,285.2374,69.846,290.8514Z" transform="translate(-1.7391 -68.5758)"/><path class="cls-1" d="M177.8941,294.2694c0-5.49.55-10.4079-.23-15.106-.3957-2.3831-3.1906-4.3705-4.9008-6.5367-1.9222,2.1121-5.0595,3.9972-5.5085,6.3846-.8788,4.6736-.2581,9.6274-.2581,15.1839l-8.0033.4377V268.0318c6.0959-.7472,11.7346-1.68,17.4108-2.066,5.6876-.3868,9.5393,2.2067,9.77,8.2565.2487,6.5216.0562,13.06.0562,20.0471Z" transform="translate(-1.7391 -68.5758)"/><path class="cls-1" d="M225.9849,287.5715c6.239-4.93,12.19,9.0686,18.9484-1.8754-4.2341-1.2932-8.1992-1.7871-11.3274-3.6657-3.0046-1.8042-7.5863-5.65-7.1194-7.5166.8123-3.2462,4.5123-7.0362,7.8276-8.1455,7.7726-2.6006,13.3191.2983,17.2092,7.9539L234.88,271.3889q-.4008,1.9227-.8015,3.8454c3.5341,1.0251,7.4148,1.455,10.5051,3.2425,3.1025,1.7946,7.8167,5.2731,7.5188,7.42-.4549,3.2783-4.0405,7.39-7.3074,8.768C236.4526,298.1839,228.916,294.8964,225.9849,287.5715Z" transform="translate(-1.7391 -68.5758)"/><path class="cls-1" d="M92.5508,255.9161H100.21v38.3656l-7.6591.4159Z" transform="translate(-1.7391 -68.5758)"/><path class="cls-1" d="M84.6785,294.7426l-8.3018-.457c0-7.8288-.2658-15.2135.2053-22.5511.1049-1.6338,2.8032-3.1021,4.3074-4.6466,1.263,1.4737,3.5372,2.895,3.6172,4.43C84.89,278.8655,84.6785,286.244,84.6785,294.7426Z" transform="translate(-1.7391 -68.5758)"/><path class="cls-1" d="M143.7394,267.4081h7.3122v26.89h-7.3122Z" transform="translate(-1.7391 -68.5758)"/></svg>